<svg width="175" height="35" viewBox="0 0 175 35" fill="none" xmlns="http://www.w3.org/2000/svg">
<path fill-rule="evenodd" clip-rule="evenodd" d="M27.8333 18C27.8333 25.0877 22.0877 30.8333 15 30.8333C7.91234 30.8333 2.16666 25.0877 2.16666 18C2.16666 10.9123 7.91234 5.16666 15 5.16666C22.0877 5.16666 27.8333 10.9123 27.8333 18ZM30 18C30 26.2843 23.2843 33 15 33C6.71573 33 0 26.2843 0 18C0 9.71573 6.71573 3 15 3C23.2843 3 30 9.71573 30 18ZM23.2759 11.2759C23.2759 12.1329 22.5812 12.8276 21.7242 12.8276C20.8672 12.8276 20.1725 12.1329 20.1725 11.2759C20.1725 10.4189 20.8672 9.72418 21.7242 9.72418C22.5812 9.72418 23.2759 10.4189 23.2759 11.2759ZM10.4879 19.209C11.1556 21.7009 13.717 23.1797 16.2089 22.512C18.7008 21.8443 20.1796 19.2829 19.5119 16.791C18.8442 14.2991 16.2828 12.8203 13.7909 13.488C11.299 14.1557 9.82015 16.7171 10.4879 19.209ZM8.39503 19.7698C9.37244 23.4175 13.1219 25.5823 16.7696 24.6049C20.4174 23.6274 22.5821 19.878 21.6047 16.2302C20.6273 12.5825 16.8779 10.4177 13.2301 11.3952C9.58236 12.3726 7.41762 16.122 8.39503 19.7698Z" fill="url(#paint0_linear_101_7)"/>
<path d="M43.232 17.6C43.232 18.624 43.464 19.512 43.928 20.264C44.392 21 45 21.56 45.752 21.944C46.52 22.328 47.36 22.52 48.272 22.52C49.072 22.52 49.776 22.416 50.384 22.208C50.992 22 51.536 21.728 52.016 21.392C52.496 21.056 52.92 20.696 53.288 20.312V24.68C52.616 25.208 51.88 25.624 51.08 25.928C50.28 26.232 49.264 26.384 48.032 26.384C46.688 26.384 45.448 26.176 44.312 25.76C43.176 25.344 42.2 24.744 41.384 23.96C40.568 23.176 39.936 22.248 39.488 21.176C39.04 20.104 38.816 18.912 38.816 17.6C38.816 16.288 39.04 15.096 39.488 14.024C39.936 12.952 40.568 12.024 41.384 11.24C42.2 10.456 43.176 9.856 44.312 9.44C45.448 9.024 46.688 8.816 48.032 8.816C49.264 8.816 50.28 8.968 51.08 9.272C51.88 9.576 52.616 9.992 53.288 10.52V14.888C52.92 14.504 52.496 14.144 52.016 13.808C51.536 13.456 50.992 13.184 50.384 12.992C49.776 12.784 49.072 12.68 48.272 12.68C47.36 12.68 46.52 12.872 45.752 13.256C45 13.64 44.392 14.2 43.928 14.936C43.464 15.672 43.232 16.56 43.232 17.6ZM55.5961 20.48C55.5961 19.312 55.8681 18.296 56.4121 17.432C56.9561 16.568 57.7081 15.896 58.6681 15.416C59.6281 14.936 60.7081 14.696 61.9081 14.696C63.1081 14.696 64.1801 14.936 65.1241 15.416C66.0841 15.896 66.8361 16.568 67.3801 17.432C67.9401 18.296 68.2201 19.312 68.2201 20.48C68.2201 21.632 67.9401 22.64 67.3801 23.504C66.8361 24.368 66.0841 25.04 65.1241 25.52C64.1801 26 63.1081 26.24 61.9081 26.24C60.7081 26.24 59.6281 26 58.6681 25.52C57.7081 25.04 56.9561 24.368 56.4121 23.504C55.8681 22.64 55.5961 21.632 55.5961 20.48ZM59.3161 20.48C59.3161 21.056 59.4361 21.552 59.6761 21.968C59.9161 22.368 60.2281 22.68 60.6121 22.904C60.9961 23.128 61.4281 23.24 61.9081 23.24C62.3721 23.24 62.7961 23.128 63.1801 22.904C63.5801 22.68 63.8921 22.368 64.1161 21.968C64.3561 21.552 64.4761 21.056 64.4761 20.48C64.4761 19.904 64.3561 19.408 64.1161 18.992C63.8921 18.576 63.5801 18.256 63.1801 18.032C62.7961 17.808 62.3721 17.696 61.9081 17.696C61.4281 17.696 60.9961 17.808 60.6121 18.032C60.2281 18.256 59.9161 18.576 59.6761 18.992C59.4361 19.408 59.3161 19.904 59.3161 20.48ZM74.1924 21.68C74.1924 22.32 74.3124 22.824 74.5524 23.192C74.7924 23.544 75.2084 23.72 75.8004 23.72C76.2004 23.72 76.5364 23.64 76.8084 23.48C77.0964 23.32 77.3204 23.088 77.4804 22.784C77.6404 22.48 77.7204 22.112 77.7204 21.68V14.96H81.3444V26H77.7204V24.344C77.3844 24.936 76.9444 25.408 76.4004 25.76C75.8564 26.096 75.1764 26.264 74.3604 26.264C72.9844 26.264 71.9764 25.896 71.3364 25.16C70.7124 24.408 70.4004 23.376 70.4004 22.064V14.96H74.1924V21.68ZM87.8051 31.28H84.1811V14.96H87.8051V31.28ZM96.8291 20.48C96.8291 21.76 96.5731 22.84 96.0611 23.72C95.5651 24.6 94.9171 25.264 94.1171 25.712C93.3331 26.16 92.4851 26.384 91.5731 26.384C90.6131 26.384 89.7811 26.144 89.0771 25.664C88.3891 25.168 87.8611 24.48 87.4931 23.6C87.1251 22.704 86.9411 21.664 86.9411 20.48C86.9411 19.28 87.1251 18.24 87.4931 17.36C87.8611 16.48 88.3891 15.8 89.0771 15.32C89.7811 14.824 90.6131 14.576 91.5731 14.576C92.4851 14.576 93.3331 14.8 94.1171 15.248C94.9171 15.696 95.5651 16.36 96.0611 17.24C96.5731 18.104 96.8291 19.184 96.8291 20.48ZM93.0131 20.48C93.0131 19.904 92.8931 19.416 92.6531 19.016C92.4131 18.616 92.0931 18.312 91.6931 18.104C91.2931 17.896 90.8531 17.792 90.3731 17.792C89.9571 17.792 89.5491 17.896 89.1491 18.104C88.7651 18.296 88.4451 18.592 88.1891 18.992C87.9331 19.392 87.8051 19.888 87.8051 20.48C87.8051 21.072 87.9331 21.568 88.1891 21.968C88.4451 22.368 88.7651 22.672 89.1491 22.88C89.5491 23.072 89.9571 23.168 90.3731 23.168C90.8531 23.168 91.2931 23.064 91.6931 22.856C92.0931 22.648 92.4131 22.344 92.6531 21.944C92.8931 21.544 93.0131 21.056 93.0131 20.48ZM99.0176 7.28H102.666V26H99.0176V7.28ZM111.102 26.24C109.822 26.24 108.71 26.008 107.766 25.544C106.838 25.064 106.118 24.392 105.606 23.528C105.094 22.664 104.838 21.648 104.838 20.48C104.838 19.296 105.086 18.272 105.582 17.408C106.078 16.544 106.79 15.88 107.718 15.416C108.662 14.952 109.774 14.72 111.054 14.72C112.334 14.72 113.414 14.944 114.294 15.392C115.174 15.824 115.846 16.456 116.31 17.288C116.774 18.12 117.006 19.128 117.006 20.312C117.006 20.488 117.006 20.664 117.006 20.84C117.006 21 116.99 21.136 116.958 21.248H106.878V19.232H113.694L112.83 20.336C112.91 20.224 112.974 20.088 113.022 19.928C113.086 19.752 113.118 19.608 113.118 19.496C113.118 19.016 113.03 18.6 112.854 18.248C112.678 17.896 112.43 17.624 112.11 17.432C111.79 17.24 111.414 17.144 110.982 17.144C110.438 17.144 109.982 17.264 109.614 17.504C109.246 17.744 108.966 18.112 108.774 18.608C108.598 19.088 108.502 19.696 108.486 20.432C108.486 21.104 108.582 21.68 108.774 22.16C108.966 22.64 109.254 23.008 109.638 23.264C110.022 23.504 110.494 23.624 111.054 23.624C111.694 23.624 112.238 23.504 112.686 23.264C113.15 23.024 113.518 22.664 113.79 22.184L117.03 22.976C116.454 24.064 115.67 24.88 114.678 25.424C113.702 25.968 112.51 26.24 111.102 26.24ZM118.836 26.792H122.34C122.388 27.24 122.516 27.616 122.724 27.92C122.948 28.224 123.244 28.448 123.612 28.592C123.98 28.752 124.396 28.832 124.86 28.832C125.372 28.832 125.836 28.712 126.252 28.472C126.668 28.248 126.996 27.904 127.236 27.44C127.492 26.992 127.62 26.432 127.62 25.76V14.96H131.1V25.76C131.1 27.168 130.82 28.312 130.26 29.192C129.716 30.072 128.988 30.712 128.076 31.112C127.164 31.528 126.14 31.736 125.004 31.736C123.644 31.736 122.516 31.528 121.62 31.112C120.74 30.696 120.076 30.112 119.628 29.36C119.18 28.624 118.916 27.768 118.836 26.792ZM118.596 20.336C118.596 19.088 118.844 18.048 119.34 17.216C119.852 16.384 120.508 15.76 121.308 15.344C122.108 14.928 122.956 14.72 123.852 14.72C124.78 14.72 125.596 14.944 126.3 15.392C127.02 15.824 127.588 16.456 128.004 17.288C128.42 18.12 128.628 19.136 128.628 20.336C128.628 21.52 128.42 22.536 128.004 23.384C127.588 24.216 127.02 24.856 126.3 25.304C125.596 25.736 124.78 25.952 123.852 25.952C122.956 25.952 122.108 25.744 121.308 25.328C120.508 24.896 119.852 24.264 119.34 23.432C118.844 22.6 118.596 21.568 118.596 20.336ZM122.412 20.336C122.412 20.896 122.532 21.384 122.772 21.8C123.012 22.2 123.332 22.504 123.732 22.712C124.132 22.92 124.572 23.024 125.052 23.024C125.468 23.024 125.868 22.928 126.252 22.736C126.652 22.528 126.98 22.224 127.236 21.824C127.492 21.424 127.62 20.928 127.62 20.336C127.62 19.888 127.54 19.496 127.38 19.16C127.236 18.824 127.036 18.544 126.78 18.32C126.54 18.096 126.268 17.928 125.964 17.816C125.66 17.704 125.356 17.648 125.052 17.648C124.572 17.648 124.132 17.752 123.732 17.96C123.332 18.168 123.012 18.472 122.772 18.872C122.532 19.272 122.412 19.76 122.412 20.336ZM137.469 14.96V26H133.893V14.96H137.469ZM140.661 18.704C140.469 18.512 140.261 18.36 140.037 18.248C139.829 18.136 139.565 18.08 139.245 18.08C138.893 18.08 138.581 18.176 138.309 18.368C138.037 18.56 137.829 18.84 137.685 19.208C137.541 19.576 137.469 20.024 137.469 20.552L136.605 19.28C136.605 18.4 136.773 17.616 137.109 16.928C137.461 16.24 137.917 15.696 138.477 15.296C139.037 14.896 139.621 14.696 140.229 14.696C140.629 14.696 141.013 14.776 141.381 14.936C141.749 15.096 142.029 15.32 142.221 15.608L140.661 18.704ZM146.568 22.544C146.568 22.832 146.64 23.08 146.784 23.288C146.928 23.48 147.12 23.632 147.36 23.744C147.6 23.84 147.864 23.888 148.152 23.888C148.568 23.888 148.952 23.8 149.304 23.624C149.656 23.448 149.944 23.184 150.168 22.832C150.392 22.48 150.504 22.048 150.504 21.536L150.888 22.976C150.888 23.68 150.696 24.28 150.312 24.776C149.928 25.256 149.432 25.624 148.824 25.88C148.216 26.12 147.56 26.24 146.856 26.24C146.152 26.24 145.496 26.112 144.888 25.856C144.296 25.584 143.816 25.184 143.448 24.656C143.096 24.128 142.92 23.488 142.92 22.736C142.92 21.68 143.296 20.848 144.048 20.24C144.8 19.616 145.864 19.304 147.24 19.304C147.912 19.304 148.512 19.368 149.04 19.496C149.584 19.624 150.048 19.784 150.432 19.976C150.816 20.168 151.104 20.368 151.296 20.576V22.184C150.912 21.896 150.464 21.68 149.952 21.536C149.456 21.376 148.928 21.296 148.368 21.296C147.936 21.296 147.592 21.344 147.336 21.44C147.08 21.536 146.888 21.68 146.76 21.872C146.632 22.048 146.568 22.272 146.568 22.544ZM144.96 18.344L143.736 15.92C144.36 15.616 145.112 15.328 145.992 15.056C146.872 14.784 147.832 14.648 148.872 14.648C149.848 14.648 150.72 14.792 151.488 15.08C152.256 15.352 152.864 15.752 153.312 16.28C153.76 16.808 153.984 17.456 153.984 18.224V26H150.504V19.04C150.504 18.768 150.456 18.536 150.36 18.344C150.28 18.136 150.152 17.96 149.976 17.816C149.8 17.672 149.576 17.568 149.304 17.504C149.048 17.44 148.752 17.408 148.416 17.408C147.92 17.408 147.432 17.464 146.952 17.576C146.488 17.688 146.08 17.824 145.728 17.984C145.376 18.128 145.12 18.248 144.96 18.344ZM173.545 18.896V26H169.897V19.28C169.897 18.608 169.785 18.104 169.561 17.768C169.353 17.416 169.001 17.24 168.505 17.24C168.185 17.24 167.897 17.32 167.641 17.48C167.401 17.624 167.209 17.848 167.065 18.152C166.937 18.456 166.873 18.832 166.873 19.28V26H163.225V19.28C163.225 18.608 163.113 18.104 162.889 17.768C162.681 17.416 162.329 17.24 161.833 17.24C161.513 17.24 161.225 17.32 160.969 17.48C160.729 17.624 160.537 17.848 160.393 18.152C160.265 18.456 160.201 18.832 160.201 19.28V26H156.697V14.96H160.201V16.592C160.505 16 160.921 15.536 161.449 15.2C161.993 14.864 162.641 14.696 163.393 14.696C164.257 14.696 164.945 14.856 165.457 15.176C165.969 15.48 166.337 15.928 166.561 16.52C166.961 15.944 167.457 15.496 168.049 15.176C168.641 14.856 169.313 14.696 170.065 14.696C170.929 14.696 171.609 14.864 172.105 15.2C172.617 15.52 172.985 15.992 173.209 16.616C173.433 17.24 173.545 18 173.545 18.896Z" fill="white"/>
<defs>
<linearGradient id="paint0_linear_101_7" x1="15" y1="3" x2="15" y2="33" gradientUnits="userSpaceOnUse">
<stop stop-color="#877EFF"/>
<stop offset="0.461458" stop-color="#685DFF"/>
<stop offset="1" stop-color="#3121FF"/>
</linearGradient>
</defs>
</svg>
